<svg width="37" height="41" viewBox="0 0 37 41" fill="none" xmlns="http://www.w3.org/2000/svg">
<path fill-rule="evenodd" clip-rule="evenodd" d="M21.1167 1.03059C21.8963 1.30887 22.4167 2.04721 22.4167 2.87494V14.6249H34.1667C34.9234 14.6249 35.6123 15.0609 35.9364 15.7447C36.2604 16.4284 36.1615 17.2377 35.6824 17.8234L18.0574 39.365C17.5332 40.0057 16.6629 40.2476 15.8833 39.9693C15.1038 39.691 14.5834 38.9527 14.5834 38.1249V26.3749H2.83335C2.07668 26.3749 1.3877 25.939 1.06367 25.2552C0.739635 24.5714 0.83853 23.7622 1.31769 23.1765L18.9427 1.63485C19.4668 0.994222 20.3372 0.75232 21.1167 1.03059ZM6.96591 22.4583H16.5417C17.6232 22.4583 18.5 23.335 18.5 24.4166V32.6389L30.0341 18.5416H20.4584C19.3768 18.5416 18.5 17.6648 18.5 16.5833V8.36103L6.96591 22.4583Z" fill="black" stroke="white" stroke-linecap="round" stroke-linejoin="round"/>
</svg>
