<svg width="66" height="66" viewBox="0 0 66 66" fill="none" xmlns="http://www.w3.org/2000/svg">
<path fill-rule="evenodd" clip-rule="evenodd" d="M17.6011 6.0014C20.2546 5.78954 22.7736 4.74586 24.7994 3.01897C27.0874 1.07025 29.9946 0 33 0C36.0054 0 38.9126 1.07025 41.2006 3.01897C43.2264 4.74586 45.7454 5.78954 48.3989 6.0014C51.3955 6.24089 54.2088 7.5399 56.3344 9.66556C58.4601 11.7912 59.7591 14.6045 59.9986 17.6011C60.209 20.2535 61.2526 22.7739 62.981 24.7994C64.9297 27.0874 66 29.9946 66 33C66 36.0054 64.9297 38.9126 62.981 41.2006C61.2541 43.2264 60.2105 45.7454 59.9986 48.3989C59.7591 51.3955 58.4601 54.2088 56.3344 56.3344C54.2088 58.4601 51.3955 59.7591 48.3989 59.9986C45.7454 60.2105 43.2264 61.2541 41.2006 62.981C38.9126 64.9297 36.0054 66 33 66C29.9946 66 27.0874 64.9297 24.7994 62.981C22.7736 61.2541 20.2546 60.2105 17.6011 59.9986C14.6045 59.7591 11.7912 58.4601 9.66556 56.3344C7.5399 54.2088 6.24089 51.3955 6.0014 48.3989C5.78954 45.7454 4.74586 43.2264 3.01897 41.2006C1.07025 38.9126 0 36.0054 0 33C0 29.9946 1.07025 27.0874 3.01897 24.7994C4.74586 22.7736 5.78954 20.2546 6.0014 17.6011C6.24089 14.6045 7.5399 11.7912 9.66556 9.66556C11.7912 7.5399 14.6045 6.24089 17.6011 6.0014ZM48.2916 27.6663C49.0431 26.8883 49.4588 25.8463 49.4494 24.7647C49.44 23.6831 49.0062 22.6485 48.2414 21.8837C47.4766 21.1189 46.442 20.685 45.3604 20.6756C44.2788 20.6662 43.2368 21.082 42.4588 21.8334L28.8749 35.4173L23.5412 30.0836C22.7632 29.3322 21.7212 28.9164 20.6396 28.9258C19.558 28.9352 18.5234 29.369 17.7586 30.1338C16.9938 30.8986 16.56 31.9333 16.5506 33.0148C16.5412 34.0964 16.9569 35.1384 17.7084 35.9164L25.9585 44.1666C26.7321 44.9399 27.7811 45.3743 28.8749 45.3743C29.9688 45.3743 31.0178 44.9399 31.7914 44.1666L48.2916 27.6663Z" fill="url(#paint0_linear_229_147)"/>
<defs>
<linearGradient id="paint0_linear_229_147" x1="33" y1="0" x2="33" y2="66" gradientUnits="userSpaceOnUse">
<stop stop-color="#A532FF"/>
<stop offset="0.385417" stop-color="#8833FF"/>
<stop offset="1" stop-color="#0038FF"/>
</linearGradient>
</defs>
</svg>
