<svg width="13" height="13" viewBox="0 0 13 13" fill="none" xmlns="http://www.w3.org/2000/svg">
<path fill-rule="evenodd" clip-rule="evenodd" d="M3.41349 1.16389C3.92809 1.1228 4.41662 0.920393 4.80949 0.585488C5.25322 0.207561 5.81703 0 6.39989 0C6.98275 0 7.54656 0.207561 7.99029 0.585488C8.38316 0.920393 8.87168 1.1228 9.38629 1.16389C9.96743 1.21033 10.513 1.46226 10.9253 1.8745C11.3375 2.28674 11.5894 2.83234 11.6359 3.41349C11.6767 3.92789 11.8791 4.41669 12.2143 4.80949C12.5922 5.25322 12.7998 5.81703 12.7998 6.39989C12.7998 6.98275 12.5922 7.54656 12.2143 7.99029C11.8794 8.38316 11.677 8.87168 11.6359 9.38629C11.5894 9.96743 11.3375 10.513 10.9253 10.9253C10.513 11.3375 9.96743 11.5894 9.38629 11.6359C8.87168 11.677 8.38316 11.8794 7.99029 12.2143C7.54656 12.5922 6.98275 12.7998 6.39989 12.7998C5.81703 12.7998 5.25322 12.5922 4.80949 12.2143C4.41662 11.8794 3.92809 11.677 3.41349 11.6359C2.83234 11.5894 2.28674 11.3375 1.8745 10.9253C1.46226 10.513 1.21033 9.96743 1.16389 9.38629C1.1228 8.87168 0.920393 8.38316 0.585488 7.99029C0.207561 7.54656 0 6.98275 0 6.39989C0 5.81703 0.207561 5.25322 0.585488 4.80949C0.920393 4.41662 1.1228 3.92809 1.16389 3.41349C1.21033 2.83234 1.46226 2.28674 1.8745 1.8745C2.28674 1.46226 2.83234 1.21033 3.41349 1.16389ZM9.36549 5.36549C9.51121 5.21461 9.59185 5.01252 9.59003 4.80277C9.5882 4.59301 9.50407 4.39236 9.35574 4.24403C9.20742 4.09571 9.00677 4.01157 8.79701 4.00975C8.58725 4.00793 8.38517 4.08856 8.23429 4.23429L5.59989 6.86869L4.56549 5.83429C4.41461 5.68856 4.21252 5.60793 4.00277 5.60975C3.79301 5.61157 3.59236 5.69571 3.44403 5.84403C3.29571 5.99236 3.21157 6.19301 3.20975 6.40277C3.20793 6.61252 3.28856 6.81461 3.43429 6.96549L5.03429 8.56549C5.18431 8.71546 5.38776 8.79972 5.59989 8.79972C5.81202 8.79972 6.01547 8.71546 6.16549 8.56549L9.36549 5.36549Z" fill="url(#paint0_linear_229_144)"/>
<defs>
<linearGradient id="paint0_linear_229_144" x1="6.39989" y1="0" x2="6.39989" y2="12.7998" gradientUnits="userSpaceOnUse">
<stop stop-color="#A532FF"/>
<stop offset="0.385417" stop-color="#8833FF"/>
<stop offset="1" stop-color="#0038FF"/>
</linearGradient>
</defs>
</svg>
